<?xml version="1.0" encoding="UTF-8" standalone="no"?>
<svg
   width="400"
   height="400"
   viewBox="0 0 300 300"
   version="1.1"
   id="svg13"
   sodipodi:docname="tmp.svg"
   inkscape:version="1.1.1 (3bf5ae0d25, 2021-09-20)"
   inkscape:export-filename="C:\Users\chris\git\scf-wiki\quartz\static\tmp.png"
   inkscape:export-xdpi="480"
   inkscape:export-ydpi="480"
   xmlns:inkscape="http://www.inkscape.org/namespaces/inkscape"
   xmlns:sodipodi="http://sodipodi.sourceforge.net/DTD/sodipodi-0.dtd"
   xmlns="http://www.w3.org/2000/svg"
   xmlns:svg="http://www.w3.org/2000/svg">
  <defs
     id="defs17" />
  <sodipodi:namedview
     id="namedview15"
     pagecolor="#505050"
     bordercolor="#eeeeee"
     borderopacity="1"
     inkscape:pageshadow="0"
     inkscape:pageopacity="0"
     inkscape:pagecheckerboard="0"
     inkscape:document-units="px"
     showgrid="false"
     units="px"
     inkscape:zoom="2.0135135"
     inkscape:cx="174.81879"
     inkscape:cy="195.42953"
     inkscape:window-width="2560"
     inkscape:window-height="1377"
     inkscape:window-x="2552"
     inkscape:window-y="-8"
     inkscape:window-maximized="1"
     inkscape:current-layer="svg13" />
  <rect
     style="opacity:1;fill:#191919;fill-rule:evenodd;stroke-width:0.99999;-inkscape-stroke:none;paint-order:fill markers stroke;stop-color:#000000;font-variation-settings:normal;vector-effect:none;fill-opacity:1;stroke:none;stroke-linecap:butt;stroke-linejoin:miter;stroke-miterlimit:4;stroke-dasharray:none;stroke-dashoffset:0;stroke-opacity:1;stop-opacity:1"
     id="rect2373"
     width="300"
     height="300"
     x="0"
     y="0"
     ry="59.224831"
     rx="59.224831" />
  <path
     id="path4"
     style="fill:#e5e5e5;fill-opacity:1;fill-rule:nonzero;stroke:none;stroke-width:0.99999"
     d="m 125.77488,20.114825 c -1.93314,-0.02182 -3.81151,0.44462 -5.63581,1.400043 -1.25172,0.556624 -4.51815,3.475501 -9.79928,8.756633 -3.75517,3.75517 -6.46735,6.641125 -8.1345,8.65583 -1.66988,2.01742 -3.198555,4.414972 -4.586038,7.192658 L 96.992036,47.581125 94.281548,47.16264 C 92.750152,46.8884 88.786586,46.261861 82.39493,45.28709 70.855179,43.481459 63.279334,42.856616 59.665357,43.410524 c -3.75517,0.556624 -7.786954,2.294374 -12.093317,5.213251 -1.531394,0.97477 -5.075454,4.172977 -10.636255,9.592588 -5.560802,5.425035 -8.341203,8.412473 -8.341203,8.966381 0,0.418149 0.138818,0.765702 0.418486,1.04265 0.415431,0.41815 0.831202,0.523363 1.249347,0.311575 0.415432,-0.206356 1.319605,-0.936414 2.71252,-2.188136 4.44484,-4.309081 9.310541,-6.880747 14.597105,-7.717041 3.193116,-0.553908 10.352852,0.07094 21.477169,1.876566 9.451729,1.531394 15.951668,2.43557 19.497763,2.712524 3.543384,0.279664 7.122399,0.20941 10.739096,-0.208739 5.699282,-0.695099 10.426502,-1.876567 14.181682,-3.546435 1.66442,-0.830861 3.12285,-1.802914 4.37729,-2.916162 1.249,-1.110532 4.16992,-3.891271 8.75867,-8.344256 5.14265,-5.139941 8.09683,-8.232593 8.86252,-9.277959 0.76298,-1.039935 1.21405,-3.091973 1.35525,-6.152043 0.41542,-3.752455 -0.69749,-6.880406 -3.33669,-9.383853 -1.39291,-1.3902 -2.78312,-2.292337 -4.1706,-2.710483 -1.19946,-0.364521 -2.37942,-0.553033 -3.53931,-0.566127 z m 115.03874,0 c -1.93315,-0.02182 -3.8115,0.44462 -5.63581,1.400043 -1.25172,0.556624 -4.51815,3.475501 -9.79928,8.756633 -3.75517,3.75517 -6.46736,6.641125 -8.13451,8.65583 -1.66987,2.01742 -3.19854,4.414972 -4.58603,7.192658 l -0.62722,1.461136 -2.70946,-0.418485 c -1.5314,-0.27424 -5.49598,-0.900779 -11.88764,-1.87555 -11.53975,-1.805631 -19.11559,-2.430474 -22.72957,-1.876566 -3.75518,0.556624 -7.78696,2.294374 -12.09332,5.213251 -1.5314,0.97477 -5.07443,4.172977 -10.63524,9.592588 -5.5608,5.425035 -8.3412,8.412473 -8.3412,8.966381 0,0.418149 0.1378,0.765702 0.41746,1.04265 0.41544,0.41815 0.8312,0.523363 1.24935,0.311575 0.41543,-0.206356 1.31961,-0.936414 2.71252,-2.188136 4.44484,-4.309081 9.31055,-6.880747 14.59711,-7.717041 3.19311,-0.553908 10.35285,0.07094 21.47717,1.876566 9.45173,1.531394 15.95269,2.43557 19.49878,2.712524 3.54338,0.279664 7.12138,0.20941 10.73808,-0.208739 5.69928,-0.695099 10.4265,-1.876567 14.18167,-3.546435 1.66444,-0.830861 3.12286,-1.802914 4.3773,-2.916162 1.249,-1.110532 4.17094,-3.891271 8.75968,-8.344256 5.14267,-5.139941 8.09684,-8.232593 8.86254,-9.277959 0.76297,-1.039935 1.21302,-3.091973 1.35422,-6.152043 0.41542,-3.752455 -0.69748,-6.880406 -3.33669,-9.383853 -1.39291,-1.3902 -2.78311,-2.292337 -4.1706,-2.710483 -1.19946,-0.364521 -2.37942,-0.553033 -3.53931,-0.566127 z m -128.59727,15.16323 2.0853,0.206697 c 1.52597,0.279669 2.77735,0.766036 3.75212,1.461137 0.97206,0.556623 1.84092,1.599273 2.60663,3.12795 0.76297,1.531393 1.14576,2.853034 1.14855,3.96085 v 1.876566 l -2.71253,0.62722 c -1.66987,0.418146 -3.75517,0.765696 -6.2559,1.04265 v 0.208734 c -2.36497,0.141192 -3.71988,0.209407 -4.06471,0.206697 -0.35026,0.0027 -0.5241,-0.135762 -0.52132,-0.415431 -0.003,-0.553908 0.41305,-2.117884 1.24935,-4.691926 0.83086,-2.571327 1.45773,-4.412597 1.87861,-5.525843 z m 115.03874,0 2.0853,0.206697 c 1.52597,0.279669 2.77735,0.766036 3.75212,1.461137 0.97205,0.556623 1.84092,1.599273 2.60662,3.12795 0.76299,1.531393 1.14578,2.853034 1.14855,3.96085 v 1.876566 l -2.71252,0.62722 c -1.66987,0.418146 -3.75517,0.765696 -6.2559,1.04265 v 0.208734 c -2.36498,0.141192 -3.71988,0.209407 -4.06471,0.206697 -0.35027,0.0027 -0.52409,-0.135762 -0.52132,-0.415431 -0.003,-0.553908 0.41305,-2.117884 1.24935,-4.691926 0.83085,-2.571327 1.45774,-4.412597 1.8786,-5.525843 z M 20.65252,74.828509 18.567219,78.374945 c -2.226493,4.173319 -3.407619,7.507284 -3.543381,10.008017 -0.141193,1.808344 0.344834,3.059727 1.458081,3.752115 0.276953,0.141162 1.667154,0.212527 4.170601,0.209754 l 40.663362,-0.209754 c -0.141196,1.669868 -0.208394,4.659341 -0.205683,8.968423 -0.0027,4.31179 -0.0027,6.57087 0,6.77722 -0.0027,0.20907 -0.0027,0.48637 0,0.83392 -0.0027,0.34755 -0.0027,0.59158 0,0.73006 -0.141191,0.003 -0.24776,0.003 -0.315642,0 -0.07061,0.003 -0.102841,0.003 -0.102841,0 -4.588748,0.14119 -8.55333,0.56002 -11.887639,1.2524 -2.226493,0.55935 -4.659344,1.6692 -7.298551,3.33363 -0.55934,0.69782 -1.392237,1.67327 -2.502769,2.92227 -1.113246,1.25444 -1.737751,2.01674 -1.873512,2.29098 -0.97477,0.97477 -2.297768,2.43624 -3.964922,4.38035 -1.66987,1.94955 -2.918538,3.40729 -3.752115,4.37934 -0.27967,0.6951 -0.314967,1.25173 -0.105894,1.66987 0.209073,0.41815 0.659462,0.66215 1.357278,0.73006 0.692385,0.0706 1.249686,-0.17378 1.667832,-0.73311 3.613978,-2.22108 6.532177,-3.40219 8.758671,-3.54339 6.114708,-0.83358 12.370609,-0.83358 18.767703,0 -0.697814,6.67405 -1.878261,12.79215 -3.545417,18.35024 -2.226492,7.78729 -5.354443,14.80584 -9.383853,21.06174 -1.531393,2.0853 -3.616693,4.79816 -6.255902,8.13247 -0.418146,0.42085 -0.695439,0.73243 -0.833916,0.93879 -0.141192,0.20907 -0.456499,0.52167 -0.93981,0.93981 -0.488743,0.41815 -0.800994,0.76571 -0.936756,1.04265 -0.141193,0.27695 -0.27899,0.65946 -0.417469,1.14549 -0.141191,0.48874 -0.0034,0.87227 0.417469,1.14651 0.553907,0.42086 1.45876,0.28238 2.710482,-0.41543 0.553909,-0.13577 0.971715,-0.34484 1.251385,-0.62722 8.756633,-3.33431 15.012532,-5.07207 18.767705,-5.21325 1.944109,0.003 4.09763,0.14051 6.462596,0.41747 2.36226,0.27966 4.273782,0.52471 5.734577,0.73107 1.458084,0.21179 3.648942,0.62688 6.570531,1.25138 2.918879,0.6245 4.862644,1.07829 5.837416,1.35525 7.086762,1.25444 12.509092,2.01674 16.266974,2.29098 -0.003,5.00689 -0.0703,9.59631 -0.20873,13.7642 0,14.32287 -0.62756,26.00109 -1.876574,35.03468 -1.672578,11.8167 -3.757878,20.98875 -6.255902,27.52434 -2.64464,7.64337 -6.329213,15.151 -11.053717,22.52287 -0.141195,0.96934 3.4e-4,1.59316 0.418484,1.87555 0.972058,0.69238 2.292002,0.20704 3.961869,-1.46011 0.833578,-0.69783 2.709125,-2.1593 5.630715,-4.38036 2.916167,-2.2265 5.139939,-3.96424 6.671335,-5.21325 7.36643,-11.9579 12.37367,-24.32817 15.01559,-37.11692 2.91888,-15.56917 4.30908,-30.23381 4.1706,-44.00005 v -5.21325 -5.00452 c 5.97624,-1.3902 11.53704,-3.54304 16.6824,-6.46463 3.05736,-1.80292 4.65358,-2.77803 4.79477,-2.91922 4.86299,-6.39438 8.40976,-11.05135 10.63625,-13.97294 0.27699,-0.27424 0.34721,-0.65675 0.20874,-1.14549 -0.1412,-0.48603 -0.4212,-0.86581 -0.83392,-1.14549 -0.83629,0.003 -1.87894,0.38251 -3.12795,1.14549 -1.25443,0.7657 -2.01708,1.21949 -2.29403,1.35524 -6.25591,3.61669 -12.51181,6.04954 -18.76771,7.29855 -2.22649,0.55934 -4.5918,0.9069 -7.08982,1.04265 0.13576,-14.59439 0.34552,-26.89711 0.62518,-36.90819 0.13849,-1.11053 0.27629,-3.26711 0.41747,-6.46565 0.13576,-3.19584 0.13576,-5.62868 0,-7.29855 0.13576,-0.41543 0.13576,-0.76298 0,-1.04265 -0.28239,-0.69238 -0.69747,-1.03987 -1.25138,-1.04265 0,0.003 -0.0703,0.074 -0.20874,0.20975 -0.55661,0.003 -1.04265,0.1412 -1.45808,0.41544 -5.56351,2.64464 -10.98584,4.10238 -16.26697,4.37932 -3.893642,-0.13847 -10.42684,-1.03959 -19.601619,-2.70946 0,-0.13576 0.03225,-0.27729 0.102841,-0.41849 0.06787,-0.13847 0.103113,-0.27729 0.105892,-0.41848 0.274238,-1.94411 0.62179,-8.20001 1.04265,-18.767702 h 49.768216 c 0.27695,0.141161 1.66716,0.212526 4.17061,0.209754 l 40.66336,-0.209754 c -0.14123,1.669867 -0.20948,4.65934 -0.2067,8.968422 -0.003,4.31179 -0.003,6.57087 0,6.77722 -0.003,0.20907 -0.003,0.48637 0,0.83392 -0.003,0.34755 -0.003,0.59158 0,0.73006 -0.14119,0.003 -0.24672,0.003 -0.31463,0 -0.0706,0.003 -0.10385,0.003 -0.10385,0 -4.58875,0.14119 -8.55231,0.56002 -11.88663,1.2524 -2.2265,0.55935 -4.65934,1.6692 -7.29855,3.33363 -0.55934,0.69782 -1.39326,1.67327 -2.50378,2.92227 -1.11324,1.25444 -1.73776,2.01674 -1.87352,2.29098 -0.97476,0.97477 -2.29674,2.43624 -3.9639,4.38035 -1.66987,1.94955 -2.91955,3.40729 -3.75313,4.37934 -0.27967,0.6951 -0.31497,1.25172 -0.10589,1.66987 0.20907,0.41815 0.66047,0.66215 1.35829,0.73006 0.69238,0.0706 1.24867,-0.17378 1.66681,-0.73311 3.61398,-2.22108 6.5332,-3.40219 8.75969,-3.54339 6.11471,-0.83358 12.37061,-0.83358 18.7677,0 -0.69781,6.67405 -1.87928,12.79215 -3.54643,18.35024 -2.2265,7.78729 -5.35445,14.80584 -9.38385,21.06174 -1.5314,2.0853 -3.6167,4.79816 -6.25591,8.13247 -0.41814,0.42085 -0.69544,0.73243 -0.83391,0.93879 -0.14119,0.20907 -0.45549,0.52167 -0.9388,0.93981 -0.48873,0.41815 -0.80099,0.76571 -0.93675,1.04265 -0.14119,0.27695 -0.28,0.65946 -0.41849,1.14549 -0.14119,0.48875 -0.002,0.87227 0.41849,1.14651 0.55391,0.42086 1.45774,0.28238 2.70946,-0.41543 0.55391,-0.13577 0.97172,-0.34484 1.2514,-0.62722 8.75663,-3.33431 15.01253,-5.07207 18.7677,-5.21325 1.94411,0.003 4.09763,0.14051 6.46259,0.41747 2.36226,0.27966 4.27379,0.52471 5.73459,0.73107 1.45808,0.21179 3.64892,0.62688 6.57053,1.25138 2.91887,0.62451 4.86364,1.07829 5.83842,1.35525 7.08677,1.25444 12.5091,2.01674 16.26697,2.29098 -0.003,5.00689 -0.0713,9.59631 -0.20974,13.7642 0,14.32287 -0.62655,26.00109 -1.87556,35.03468 -1.67257,11.8167 -3.75787,20.98875 -6.2559,27.52434 -2.64464,7.64337 -6.32921,15.151 -11.05372,22.52287 -0.1412,0.96934 -6.7e-4,1.59316 0.41748,1.87555 0.97204,0.69238 2.29198,0.20704 3.96186,-1.46011 0.83357,-0.69783 2.71015,-2.1593 5.63173,-4.38036 2.91617,-2.2265 5.13994,-3.96424 6.67133,-5.21325 7.36643,-11.9579 12.37266,-24.32817 15.01459,-37.11692 2.91887,-15.56917 4.30906,-30.23381 4.1706,-44.00005 v -5.21325 -5.00452 c 5.97622,-1.3902 11.53703,-3.54304 16.6824,-6.46463 3.05735,-1.80292 4.65458,-2.77803 4.79577,-2.91922 4.86298,-6.39438 8.40875,-11.05135 10.63524,-13.97294 0.27698,-0.27424 0.34721,-0.65675 0.20875,-1.14549 -0.1412,-0.48603 -0.42019,-0.86581 -0.83291,-1.14549 -0.83629,0.003 -1.87894,0.38251 -3.12795,1.14549 -1.25444,0.7657 -2.01809,1.21949 -2.29505,1.35524 -6.2559,3.61669 -12.5118,6.04954 -18.7677,7.29855 -2.2265,0.55934 -4.59079,0.9069 -7.08881,1.04265 0.13576,-14.59439 0.3445,-26.89711 0.62417,-36.90819 0.13848,-1.11053 0.27729,-3.26711 0.41848,-6.46565 0.13576,-3.19584 0.13576,-5.62868 0,-7.29855 0.13576,-0.41543 0.13576,-0.76298 0,-1.04265 -0.28238,-0.69238 -0.6985,-1.03987 -1.25239,-1.04265 0,0.003 -0.0703,0.074 -0.20874,0.20975 -0.55662,0.003 -1.04266,0.1412 -1.45809,0.41544 -5.56351,2.64464 -10.98584,4.10238 -16.26697,4.37932 -3.89364,-0.13847 -10.42683,-1.03959 -19.60161,-2.70946 0,-0.13576 0.0332,-0.27729 0.10384,-0.41849 0.0679,-0.13847 0.10312,-0.27729 0.1059,-0.41848 0.27424,-1.94411 0.62179,-8.20001 1.04265,-18.767702 h 74.65234 c 2.50072,0.0028 3.96119,-0.0645 4.37934,-0.20568 1.11053,-0.415427 2.08291,-1.284302 2.91921,-2.606625 0.83358,-1.319599 2.01505,-3.720211 3.54643,-7.195713 1.80292,-4.447556 2.70669,-6.810146 2.70947,-7.08982 l -149.30772,-0.208731 -0.0947,0.160874 z m 82.16369,52.550991 c -0.003,1.39292 -0.074,2.43557 -0.20975,3.12795 -0.42086,8.4824 -0.69714,18.56136 -0.8329,30.23686 -0.42086,-0.13576 -5.843186,-1.24969 -16.26697,-3.3377 -6.953723,-1.24901 -13.139366,-1.59656 -18.558973,-1.04265 -0.556624,0.14119 -1.251722,0.27966 -2.0853,0.41543 0.695097,-1.11053 1.319943,-2.08191 1.876566,-2.9182 4.167886,-7.08677 7.572112,-15.36042 10.216753,-24.81487 1.249001,0.14116 2.015387,0.21151 2.295051,0.20873 6.532859,1.11324 11.816364,1.25173 15.848487,0.41544 2.362256,-0.41544 4.933926,-1.17774 7.717036,-2.29099 z m 115.03874,0 c -0.003,1.39292 -0.073,2.43557 -0.20874,3.12795 -0.42085,8.4824 -0.69815,18.56136 -0.83391,30.23686 -0.42086,-0.13576 -5.84319,-1.24969 -16.26697,-3.3377 -6.95372,-1.24901 -13.13937,-1.59656 -18.55897,-1.04265 -0.55662,0.14119 -1.25172,0.27966 -2.0853,0.41543 0.6951,-1.11053 1.31994,-2.08191 1.87656,-2.9182 4.16788,-7.08677 7.57312,-15.36042 10.21777,-24.81487 1.24901,0.14116 2.01437,0.21151 2.29403,0.20873 6.53286,1.11324 11.81637,1.25173 15.8485,0.41544 2.36225,-0.41544 4.93392,-1.17774 7.71703,-2.29099 z m -142.147648,64.85 c -0.697809,0.003 -1.531726,0.42154 -2.503783,1.2524 -2.921595,2.64464 -6.191075,6.12014 -9.802336,10.42651 -1.113248,1.39291 -1.702116,2.39958 -1.772709,3.02408 -0.0706,0.62722 0.312248,1.56738 1.148543,2.81639 1.249005,2.08802 3.090274,4.69464 5.525842,7.81987 2.430136,3.13067 3.994112,4.90066 4.691926,5.3161 0.972059,0.55661 2.152505,0.3506 3.545418,-0.62417 0.692388,-0.55391 2.777689,-2.78074 6.255901,-6.67439 2.777688,-3.19583 4.447896,-5.24584 5.004518,-6.15001 0.553911,-0.90417 0.553911,-1.77339 0,-2.60967 -0.418145,-0.69239 -1.460795,-2.0826 -3.127951,-4.1706 -1.669866,-2.35954 -3.201603,-4.51205 -4.589084,-6.46159 -1.531397,-2.08258 -2.502767,-3.26677 -2.918201,-3.54643 -0.418145,-0.27696 -0.90417,-0.41571 -1.458084,-0.41849 z m 115.038738,0 c -0.6978,0.003 -1.53173,0.42154 -2.50378,1.2524 -2.9216,2.64464 -6.19007,6.12014 -9.80132,10.42651 -1.11325,1.39291 -1.70314,2.39958 -1.77372,3.02408 -0.0706,0.62722 0.31224,1.56738 1.14854,2.81639 1.249,2.08802 3.09027,4.69464 5.52584,7.81987 2.43013,3.13067 3.99411,4.90066 4.69192,5.3161 0.97206,0.55661 2.15352,0.3506 3.54644,-0.62417 0.69238,-0.55391 2.77768,-2.78074 6.2559,-6.67439 2.77768,-3.19583 4.44688,-5.24584 5.00351,-6.15001 0.5539,-0.90417 0.5539,-1.77339 0,-2.60967 -0.41815,-0.69239 -1.4608,-2.0826 -3.12795,-4.1706 -1.66987,-2.35954 -3.20059,-4.51205 -4.58808,-6.46159 -1.53139,-2.08258 -2.50379,-3.26677 -2.91922,-3.54643 -0.41814,-0.27696 -0.90416,-0.41571 -1.45808,-0.41849 z" />
</svg>
