<?xml version="1.0" encoding="UTF-8"?>
<svg xmlns="http://www.w3.org/2000/svg" xmlns:xlink="http://www.w3.org/1999/xlink" width="300" height="359.27" viewBox="0 0 300 359.27">
<rect x="-30" y="-35.927" width="360" height="431.124" fill="rgb(10.196078%, 10.196078%, 10.196078%)" fill-opacity="1"/>
<path fill-rule="nonzero" fill="rgb(89.803922%, 89.803922%, 89.803922%)" fill-opacity="1" d="M 5.242188 67.96875 L 200.027344 68.164063 C 200.027344 68.425781 199.183594 70.625 197.5 74.765625 C 196.074219 78.003906 194.972656 80.238281 194.199219 81.464844 C 193.417969 82.699219 192.511719 83.507813 191.480469 83.890625 C 190.441406 84.023438 189.40625 84.085938 188.375 84.085938 C 187.984375 84.085938 187.660156 84.085938 187.402344 84.085938 L 178.859375 84.085938 C 180.667969 87.195313 181.511719 90.304688 181.382813 93.410156 C 181.382813 96.132813 180.605469 98.59375 179.050781 100.789063 C 177.109375 103.511719 172.511719 108.753906 165.265625 116.519531 C 157.621094 124.546875 149.53125 133.933594 140.988281 144.675781 C 136.066406 150.765625 132.894531 155.621094 131.472656 159.242188 C 128.621094 166.238281 129.589844 172.0625 134.386719 176.71875 C 137.878906 180.21875 142.023438 182.484375 146.816406 183.515625 C 147.847656 183.777344 148.949219 183.90625 150.117188 183.90625 C 151.929688 183.90625 153.609375 183.648438 155.164063 183.128906 C 155.9375 182.875 156.425781 182.648438 156.621094 182.449219 C 156.816406 182.257813 157.105469 181.707031 157.496094 180.796875 C 159.691406 175.492188 159.433594 171.285156 156.71875 168.175781 C 156.199219 167.660156 155.8125 167.011719 155.554688 166.234375 C 155.554688 165.847656 157.496094 163.679688 161.378906 159.730469 C 165.261719 155.78125 167.363281 153.808594 167.691406 153.804688 C 168.011719 153.808594 168.691406 154.261719 169.730469 155.164063 C 172.574219 158.015625 173.804688 161.640625 173.421875 166.039063 C 172.898438 170.832031 171.28125 175.167969 168.566406 179.050781 C 167.269531 180.734375 164.679688 183.582031 160.796875 187.597656 C 156.910156 191.613281 154.191406 194.136719 152.640625 195.167969 C 150.566406 196.464844 148.300781 197.371094 145.84375 197.886719 C 142.992188 198.535156 140.144531 198.601563 137.300781 198.082031 C 130.304688 196.660156 124.476563 193.359375 119.820313 188.179688 C 117.875 185.722656 116.453125 182.9375 115.550781 179.828125 C 115.289063 178.535156 115.160156 177.242188 115.160156 175.941406 C 115.160156 173.746094 115.484375 171.675781 116.132813 169.730469 C 117.296875 166.109375 118.914063 162.675781 120.988281 159.4375 C 122.925781 156.589844 127.714844 150.503906 135.355469 141.179688 C 136.777344 139.5 138.203125 137.820313 139.628906 136.132813 C 139.371094 136.007813 138.917969 135.421875 138.269531 134.382813 C 132.441406 125.195313 126.679688 115.875 120.988281 106.417969 C 114.769531 96.324219 110.820313 89.980469 109.140625 87.386719 C 107.84375 85.578125 107.132813 84.476563 107.003906 84.085938 L 98.847656 84.085938 C 99.105469 86.804688 99.234375 89.394531 99.234375 91.855469 L 99.234375 99.621094 L 99.042969 123.898438 L 99.042969 126.617188 C 98.390625 182.289063 92.695313 218.664063 81.953125 235.757813 C 78.457031 241.449219 74.183594 246.304688 69.136719 250.320313 C 67.449219 251.871094 65.574219 252.777344 63.503906 253.039063 C 63.371094 253.035156 63.304688 253.035156 63.308594 253.039063 C 62.53125 253.035156 62.144531 252.648438 62.144531 251.875 C 62.144531 251.875 62.144531 251.808594 62.144531 251.679688 C 62.144531 250.253906 63.890625 247.339844 67.386719 242.941406 C 68.421875 241.644531 69.328125 240.285156 70.105469 238.863281 C 77.226563 225.011719 81.371094 193.683594 82.535156 144.871094 C 81.371094 144.613281 80.722656 144.484375 80.59375 144.484375 C 73.597656 142.671875 66.476563 141.570313 59.230469 141.179688 C 47.964844 140.535156 35.535156 142.285156 21.945313 146.425781 C 20.773438 146.6875 19.996094 146.75 19.613281 146.617188 C 18.832031 146.101563 18.640625 145.519531 19.03125 144.871094 C 20.066406 143.578125 21.101563 142.285156 22.140625 140.988281 C 22.265625 140.859375 22.425781 140.632813 22.621094 140.308594 C 22.8125 139.984375 22.976563 139.757813 23.109375 139.628906 C 26.734375 134.0625 29.90625 127.007813 32.625 118.460938 C 35.085938 111.214844 36.023438 105.355469 35.441406 100.886719 C 34.855469 96.421875 32.558594 91.535156 28.546875 86.222656 L 27.1875 84.28125 L 5.242188 84.28125 C 2.910156 84.285156 1.679688 84.21875 1.554688 84.085938 C 0.515625 83.441406 0.0625 82.277344 0.195313 80.589844 C 0.449219 78.132813 1.550781 75.027344 3.496094 71.269531 Z M 157.691406 84.085938 L 128.367188 84.085938 C 130.566406 87.710938 132.507813 90.882813 134.191406 93.601563 C 136.78125 97.875 140.015625 103.183594 143.902344 109.527344 C 148.171875 116.390625 150.828125 120.730469 151.863281 122.539063 C 159.371094 114.644531 163.835938 109.464844 165.265625 107.003906 C 166.296875 105.582031 166.816406 103.964844 166.816406 102.148438 C 166.816406 102.023438 166.816406 101.957031 166.816406 101.953125 C 166.816406 99.625 166.234375 97.554688 165.070313 95.738281 C 163.644531 93.152344 161.183594 89.265625 157.691406 84.085938 Z M 82.730469 84.085938 L 49.714844 84.085938 C 51.136719 88.492188 51.65625 92.800781 51.269531 97.003906 C 50.878906 101.214844 49.453125 106.683594 46.996094 113.410156 C 44.792969 119.628906 42.722656 124.417969 40.78125 127.78125 C 47.902344 126.101563 54.828125 125.128906 61.5625 124.867188 C 68.679688 124.742188 75.734375 125.261719 82.730469 126.421875 C 82.855469 122.152344 82.921875 118.914063 82.921875 116.710938 C 82.921875 110.628906 82.855469 99.753906 82.730469 84.085938 Z M 194.199219 223.328125 "/>
<path fill-rule="nonzero" fill="rgb(89.803922%, 89.803922%, 89.803922%)" fill-opacity="1" d="M 118.59375 9 C 119.238281 9.003906 119.820313 9.003906 120.339844 9 C 125.128906 9.261719 128.558594 10.296875 130.632813 12.105469 C 132.441406 13.792969 133.285156 15.996094 133.15625 18.710938 C 133.027344 20.527344 132.445313 22.46875 131.410156 24.535156 C 130.761719 25.964844 129.917969 27.292969 128.882813 28.519531 C 127.847656 29.753906 125.453125 32.242188 121.699219 35.992188 C 117.941406 39.617188 115.449219 41.980469 114.222656 43.082031 C 112.992188 44.183594 111.730469 45.058594 110.4375 45.703125 C 104.738281 48.425781 99.496094 48.101563 94.707031 44.730469 C 89.269531 40.71875 90.175781 34.957031 97.425781 27.449219 C 99.625 25.121094 100.660156 23.890625 100.53125 23.757813 C 100.53125 23.628906 99.496094 23.761719 97.425781 24.148438 C 91.988281 25.316406 86 27.582031 79.460938 30.945313 C 72.921875 34.3125 66.996094 38.195313 61.691406 42.597656 C 60.003906 44.023438 58.679688 45.089844 57.710938 45.800781 C 56.738281 46.511719 55.925781 47.0625 55.28125 47.453125 C 54.632813 47.84375 54.148438 48.007813 53.824219 47.9375 C 53.5 47.875 53.273438 47.648438 53.148438 47.257813 C 53.015625 46.875 54.957031 44.609375 58.972656 40.460938 C 62.980469 36.320313 65.117188 34.246094 65.382813 34.246094 C 65.507813 34.117188 66.609375 33.210938 68.683594 31.527344 C 76.96875 24.796875 84.476563 19.75 91.210938 16.378906 C 96.386719 13.792969 101.179688 11.914063 105.582031 10.746094 C 110.242188 9.585938 114.578125 9.003906 118.59375 9 Z M 112.765625 23.757813 C 110.824219 23.242188 109.300781 23.015625 108.203125 23.078125 C 107.097656 23.144531 106.355469 23.4375 105.96875 23.953125 C 105.710938 24.601563 105.644531 25.636719 105.773438 27.058594 C 105.902344 28.484375 106.292969 29.457031 106.941406 29.972656 C 108.105469 31.402344 109.851563 32.371094 112.183594 32.886719 C 113.21875 33.144531 114.511719 33.210938 116.066406 33.082031 C 117.617188 32.953125 118.523438 32.757813 118.785156 32.496094 C 119.042969 32.109375 119.140625 31.269531 119.078125 29.972656 C 119.007813 28.683594 118.78125 27.710938 118.398438 27.058594 C 117.617188 25.507813 115.742188 24.40625 112.765625 23.757813 Z M 89.460938 29.390625 C 90.625 29.652344 90.496094 30.816406 89.074219 32.886719 C 87.390625 35.347656 86.679688 37.613281 86.9375 39.683594 C 87.195313 41.109375 87.808594 42.535156 88.78125 43.957031 C 89.75 45.382813 90.851563 46.417969 92.082031 47.0625 C 93.3125 47.714844 93.925781 48.234375 93.929688 48.617188 C 93.925781 49.007813 91.953125 51.175781 88.003906 55.125 C 84.054688 59.074219 82.078125 61.175781 82.082031 61.433594 C 82.078125 62.082031 81.238281 62.019531 79.558594 61.238281 C 77.09375 60.078125 75.085938 57.875 73.539063 54.636719 C 72.886719 53.214844 72.628906 51.726563 72.761719 50.167969 C 72.890625 47.96875 73.503906 46.058594 74.605469 44.441406 C 75.703125 42.824219 78.132813 40.074219 81.890625 36.1875 C 86.417969 31.660156 88.941406 29.394531 89.460938 29.390625 Z M 247.152344 164.359375 "/>
</svg>
