<?xml version="1.0" encoding="UTF-8" standalone="no"?>
<!-- Created with Inkscape (http://www.inkscape.org/) -->

<svg
   width="210mm"
   height="297mm"
   viewBox="0 0 210 297"
   version="1.1"
   id="svg5"
   inkscape:version="1.1.1 (3bf5ae0d25, 2021-09-20)"
   sodipodi:docname="KZR.svg"
   xmlns:inkscape="http://www.inkscape.org/namespaces/inkscape"
   xmlns:sodipodi="http://sodipodi.sourceforge.net/DTD/sodipodi-0.dtd"
   xmlns="http://www.w3.org/2000/svg"
   xmlns:svg="http://www.w3.org/2000/svg">
  <sodipodi:namedview
     id="namedview7"
     pagecolor="#505050"
     bordercolor="#eeeeee"
     borderopacity="1"
     inkscape:pageshadow="0"
     inkscape:pageopacity="0"
     inkscape:pagecheckerboard="0"
     inkscape:document-units="mm"
     showgrid="false"
     inkscape:zoom="1.4142136"
     inkscape:cx="224.5064"
     inkscape:cy="167.23075"
     inkscape:window-width="2560"
     inkscape:window-height="1377"
     inkscape:window-x="2552"
     inkscape:window-y="-8"
     inkscape:window-maximized="1"
     inkscape:current-layer="layer1" />
  <defs
     id="defs2" />
  <g
     inkscape:label="Layer 1"
     inkscape:groupmode="layer"
     id="layer1">
    <text
       xml:space="preserve"
       style="font-style:normal;font-weight:normal;font-size:10.5833px;line-height:1.25;font-family:sans-serif;fill:#000000;fill-opacity:1;stroke:none;stroke-width:0.264583"
       x="68.111763"
       y="67.013214"
       id="text28331"><tspan
         sodipodi:role="line"
         style="font-style:normal;font-variant:normal;font-weight:normal;font-stretch:normal;font-family:'DejaVu Sans Mono';-inkscape-font-specification:'DejaVu Sans Mono';stroke-width:0.264583"
         x="68.111763"
         y="67.013214"
         id="tspan28329">Zwafel</tspan></text>
    <path
       d="m 59.536099,67.014694 q -0.407789,0 -0.766362,-0.15468 -0.351542,-0.15468 -0.618714,-0.42185 -0.13358,-0.13361 -0.239049,-0.2953 -0.10547,0.16172 -0.24608,0.2953 -0.260142,0.26717 -0.618716,0.42185 -0.351542,0.15468 -0.759331,0.15468 -0.40779,0 -0.766363,-0.15468 -0.351542,-0.15468 -0.618714,-0.42185 -0.260142,-0.26718 -0.41482,-0.62575 -0.147648,-0.35858 -0.147648,-0.75933 0,-0.40076 0.147648,-0.75231 0.154678,-0.35154 0.41482,-0.61167 0.267172,-0.26014 0.618714,-0.40779 0.351543,-0.15468 0.752301,-0.15468 0.400759,0 0.759332,0.15468 0.189833,0.0773 0.358573,0.18982 v -1.89129 h -2.081131 v -0.69605 h 2.081131 v -1.04057 h -2.081131 v -0.68902 h 2.081131 v -2.28503 h 1.040566 v 2.28503 h 2.081131 v 0.68902 h -2.081131 v 1.04057 h 2.081131 v 0.69605 h -2.081131 v 1.88426 q 0.154679,-0.10544 0.337481,-0.18279 0.351542,-0.15468 0.752301,-0.15468 0.400759,0 0.759332,0.15468 0.358573,0.14765 0.625746,0.41482 0.267171,0.26014 0.42185,0.61168 0.154679,0.35154 0.154679,0.74527 0,0.40075 -0.154679,0.75933 -0.147647,0.35857 -0.41482,0.62575 -0.260141,0.26717 -0.618715,0.42185 -0.351542,0.15468 -0.759332,0.15468 z m 0,-3.06546 q -0.224987,0 -0.428881,0.0914 -0.196863,0.0844 -0.351542,0.23905 -0.147648,0.14765 -0.23905,0.35154 -0.08437,0.19686 -0.08437,0.42186 0,0.23201 0.08437,0.44294 0.08437,0.20389 0.232018,0.35858 0.147648,0.15468 0.344512,0.24607 0.196863,0.0914 0.428882,0.0914 0.224987,0 0.428881,-0.0914 0.203895,-0.0914 0.351544,-0.24607 0.154677,-0.16172 0.24608,-0.36561 0.0914,-0.2039 0.0914,-0.43591 0,-0.23202 -0.0914,-0.42889 -0.08437,-0.20389 -0.23905,-0.35154 -0.154679,-0.15468 -0.358574,-0.23905 -0.196863,-0.0844 -0.41482,-0.0844 z m -3.248252,0 q -0.224987,0 -0.428882,0.0914 -0.196863,0.0844 -0.351542,0.23905 -0.147648,0.14765 -0.239049,0.35154 -0.08437,0.19686 -0.08437,0.42186 0,0.23201 0.08437,0.44294 0.08437,0.20389 0.232018,0.35858 0.147648,0.15468 0.344511,0.24607 0.196865,0.0914 0.428882,0.0914 0.224988,0 0.428883,-0.0914 0.203894,-0.0914 0.351542,-0.24607 0.154679,-0.16172 0.246079,-0.36561 0.0914,-0.2039 0.0914,-0.43591 0,-0.23202 -0.0914,-0.42889 -0.08437,-0.20389 -0.239048,-0.35154 -0.154679,-0.15468 -0.358573,-0.23905 -0.196865,-0.0844 -0.414821,-0.0844 z"
       id="path48396"
       style="font-size:10.5833px;line-height:1.25;stroke-width:0.264583" />
    <text
       xml:space="preserve"
       style="font-style:normal;font-weight:normal;font-size:10.5833px;line-height:1.25;font-family:sans-serif;fill:#000000;fill-opacity:1;stroke:none;stroke-width:0.264583"
       x="55.76186"
       y="21.36274"
       id="text21155"><tspan
         sodipodi:role="line"
         style="font-style:normal;font-variant:normal;font-weight:normal;font-stretch:normal;font-family:'DejaVu Sans Mono';-inkscape-font-specification:'DejaVu Sans Mono';stroke-width:0.264583"
         x="55.76186"
         y="21.36274"
         id="tspan21153">Kwik</tspan></text>
    <path
       d="m 97.392803,15.65859 q 0.281234,0.1828 0.534344,0.43592 0.935104,0.92104 0.935104,2.24987 0,1.3218 -0.928073,2.19363 -0.759332,0.70308 -1.764743,0.80152 v 1.46944 l 1.518663,-0.014 v 0.70309 l -1.546787,0.007 0.0071,1.42023 h -0.90698 l -0.0071,-1.42727 h -1.42023 V 22.809 h 1.42023 l -0.01407,-1.46945 q -1.033534,-0.0914 -1.799897,-0.80151 -0.935104,-0.87183 -0.935104,-2.19363 0,-1.32883 0.935104,-2.24987 0.25311,-0.25312 0.534344,-0.43592 -0.281234,-0.17577 -0.534344,-0.43591 -0.935104,-0.92104 -0.935104,-2.24284 v -0.0562 h 0.998381 v 0.0703 q 0,0.91402 0.639807,1.54679 0.597624,0.58356 1.420233,0.63278 h 0.267172 q 0.815578,-0.0493 1.413201,-0.63278 0.639807,-0.63277 0.639807,-1.54679 v -0.0703 h 0.998381 v 0.0562 q 0,1.3218 -0.935104,2.24284 -0.25311,0.26014 -0.534344,0.43591 z m -1.581941,0.49217 h -0.267173 q -0.822609,0.0422 -1.420232,0.63276 -0.639807,0.62575 -0.639807,1.53976 0,0.91402 0.639807,1.51163 0.646839,0.59763 1.560849,0.59763 0.892918,0 1.532725,-0.59763 0.646839,-0.59761 0.646839,-1.51163 0,-0.91401 -0.639807,-1.53976 -0.597623,-0.59059 -1.413201,-0.63276 z"
       id="path48398"
       style="font-size:10.5833px;line-height:1.25;stroke-width:0.264583" />
    <g
       aria-label="🝐"
       id="text37802"
       style="font-size:11.9228px;line-height:1.25;stroke-width:0.264583"
       transform="translate(62.743091,-60.70754)">
      <path
         d="m 29.852546,106.59978 h -1.452631 l 1.452631,2.13581 h -1.150598 l -1.359146,-2.12862 h -0.02157 l -1.21532,2.12862 h -1.208129 l 1.416675,-2.13581 H -4.3579997 v -0.92767 H 26.336034 l -1.438249,-2.24366 h 1.208129 L 27.35,105.65773 h 0.02158 l 1.33038,-2.22928 h 1.150598 l -1.495778,2.24366 h 1.495778 z"
         style="font-family:'DejaVu Sans Mono';-inkscape-font-specification:'DejaVu Sans Mono';stroke-width:0.264582"
         id="path52120"
         sodipodi:nodetypes="ccccccccccccccccccccc" />
    </g>
    <text
       xml:space="preserve"
       style="font-style:normal;font-weight:normal;font-size:10.5833px;line-height:1.25;font-family:sans-serif;fill:#000000;fill-opacity:1;stroke:none;stroke-width:0.264583"
       x="62.760639"
       y="42.179237"
       id="text52756"><tspan
         sodipodi:role="line"
         style="font-style:normal;font-variant:normal;font-weight:normal;font-stretch:normal;font-family:'DejaVu Sans Mono';-inkscape-font-specification:'DejaVu Sans Mono';stroke-width:0.264583"
         x="62.760639"
         y="42.179237"
         id="tspan52754">Azoþ</tspan></text>
    <path
       id="path47905"
       style="color:#000000;fill:#000000;fill-opacity:1;fill-rule:evenodd;stroke:#000000;stroke-width:0.01;stroke-miterlimit:4;stroke-dasharray:none;stroke-opacity:1;paint-order:fill markers stroke"
       d="m 126.26311,39.882724 c 0,-0.66016 -0.19442,-1.276372 -0.52943,-1.794272 0.52844,-0.22939 0.90207,-0.75743 0.90206,-1.366095 0,-0.81629 -0.67214,-1.48843 -1.48843,-1.48843 -0.8163,0 -1.48773,0.67214 -1.48773,1.48843 -1e-5,0.522925 0.27554,0.986485 0.69184,1.254645 0.58366,0.43289 0.9583,1.123402 0.9583,1.905722 0,1.31329 -1.05471,2.3673 -2.36721,2.3673 -1.3125,0 -2.36721,-1.05401 -2.36721,-2.3673 0,-0.78232 0.37465,-1.472832 0.9583,-1.905722 0.41631,-0.26816 0.69185,-0.73172 0.69184,-1.254645 0,-0.81629 -0.67143,-1.48843 -1.48773,-1.48843 -0.81629,0 -1.48844,0.67214 -1.48844,1.48843 -10e-6,0.608665 0.37363,1.136705 0.90207,1.366095 -0.33501,0.5179 -0.52943,1.134112 -0.52943,1.794272 1e-5,1.828 1.49339,3.32139 3.3206,3.32139 1.82721,0 3.3206,-1.49339 3.3206,-3.32139 z m -1.1158,-3.694707 c -0.30159,0 -0.53645,0.23275 -0.53646,0.53434 0,0.16757 0.0722,0.314375 0.18843,0.411995 0.0267,0.0181 0.0533,0.0361 0.0794,0.0548 0.0785,0.0445 0.1699,0.0697 0.26858,0.0697 0.30159,0 0.53435,-0.23488 0.53435,-0.536455 0,-0.30159 -0.23276,-0.53434 -0.53435,-0.53434 z m -4.4096,0 c 0.30159,0 0.53646,0.23275 0.53646,0.53434 0,0.16757 -0.0722,0.314375 -0.18843,0.411995 -0.0267,0.0181 -0.0533,0.0361 -0.0794,0.0548 -0.0786,0.0445 -0.1699,0.0697 -0.26858,0.0697 -0.30159,0 -0.53435,-0.23488 -0.53435,-0.536455 0,-0.30159 0.23276,-0.53434 0.53435,-0.53434 z" />
    <text
       xml:space="preserve"
       style="font-style:normal;font-weight:normal;font-size:10.5833px;line-height:1.25;font-family:sans-serif;fill:#000000;fill-opacity:1;stroke:none;stroke-width:0.264583"
       x="130.62924"
       y="43.215485"
       id="text56872"><tspan
         sodipodi:role="line"
         style="font-style:normal;font-variant:normal;font-weight:normal;font-stretch:normal;font-family:'DejaVu Sans Mono';-inkscape-font-specification:'DejaVu Sans Mono';stroke-width:0.264583"
         x="130.62924"
         y="43.215485"
         id="tspan56870">Rebis</tspan></text>
    <g
       id="g58263"
       transform="translate(11.641667,-61.647916)" />
    <g
       id="g64286"
       transform="rotate(180,62.452067,70.695567)">
      <path
         style="color:#000000;font-variation-settings:normal;opacity:1;vector-effect:none;fill:#000000;fill-opacity:1;fill-rule:evenodd;stroke:none;stroke-width:0.264583;stroke-linecap:butt;stroke-linejoin:miter;stroke-miterlimit:4;stroke-dasharray:none;stroke-dashoffset:0;stroke-opacity:1;-inkscape-stroke:none;paint-order:fill markers stroke;stop-color:#000000;stop-opacity:1"
         d="m 22.778593,92.037524 c -3.201451,-1.419794 -4.651034,-5.179706 -3.23124,-8.381157 l 0.732024,0.324641 c -1.244515,2.806223 0.01764,6.079976 2.823858,7.324492 2.806222,1.244515 6.07819,-0.01843 7.322705,-2.824649 l -1.043704,0.402385 -0.22634,-0.587083 1.893714,-0.733842 0.370561,0.164338 0.736358,1.900238 -0.587084,0.226342 -0.406933,-1.04572 c -1.424365,3.199424 -5.182468,4.649808 -8.383919,3.230015 z"
         id="path61785"
         sodipodi:nodetypes="sccsccccccccs" />
      <path
         style="fill:none;stroke:#000000;stroke-width:0.8;stroke-linecap:butt;stroke-linejoin:miter;stroke-miterlimit:4;stroke-dasharray:none;stroke-opacity:1"
         d="m 25.796875,85.261978 c -4.727873,11.641101 -2.942936,20.913902 0,29.765622"
         id="path63592"
         sodipodi:nodetypes="cc" />
    </g>
    <g
       id="g64292"
       transform="translate(29.56001,-60.990906)">
      <path
         style="color:#000000;font-variation-settings:normal;opacity:1;vector-effect:none;fill:#000000;fill-opacity:1;fill-rule:evenodd;stroke:none;stroke-width:0.264583;stroke-linecap:butt;stroke-linejoin:miter;stroke-miterlimit:4;stroke-dasharray:none;stroke-dashoffset:0;stroke-opacity:1;-inkscape-stroke:none;paint-order:fill markers stroke;stop-color:#000000;stop-opacity:1"
         d="m 22.778593,92.037524 c -3.201451,-1.419794 -4.651034,-5.179706 -3.23124,-8.381157 l 0.732024,0.324641 c -1.244515,2.806223 0.01764,6.079976 2.823858,7.324492 2.806222,1.244515 6.07819,-0.01843 7.322705,-2.824649 l -1.043704,0.402385 -0.22634,-0.587083 1.893714,-0.733842 0.370561,0.164338 0.736358,1.900238 -0.587084,0.226342 -0.406933,-1.04572 c -1.424365,3.199424 -5.182468,4.649808 -8.383919,3.230015 z"
         id="path64288"
         sodipodi:nodetypes="sccsccccccccs" />
      <path
         style="fill:none;stroke:#000000;stroke-width:0.8;stroke-linecap:butt;stroke-linejoin:miter;stroke-miterlimit:4;stroke-dasharray:none;stroke-opacity:1"
         d="m 25.796875,85.261978 c -4.727873,11.641101 -2.942936,20.913902 0,29.765622"
         id="path64290"
         sodipodi:nodetypes="cc" />
    </g>
    <g
       aria-label="↑"
       id="text58261"
       style="font-size:10.5833px;line-height:1.25;stroke-width:0.264583"
       transform="rotate(120,124.38903,65.835563)">
      <path
         d="m 93.345737,76.331787 1.498612,1.503779 -0.465086,0.465087 -0.826821,-0.826821 v 25.515738 h -0.84749 V 77.473832 l -0.826821,0.826821 -0.465086,-0.465087 1.508947,-1.503779 z"
         style="font-family:'DejaVu Sans Mono';-inkscape-font-specification:'DejaVu Sans Mono'"
         id="path61742"
         sodipodi:nodetypes="ccccccccccc" />
    </g>
    <g
       aria-label="↑"
       id="g69842"
       style="font-size:10.5833px;line-height:1.25;stroke-width:0.264583"
       transform="matrix(-0.5,-0.8660254,-0.8660254,0.5,243.59886,87.910004)">
      <path
         d="m 93.345737,76.331787 1.498612,1.503779 -0.465086,0.465087 -0.826821,-0.826821 v 25.515738 h -0.84749 V 77.473832 l -0.826821,0.826821 -0.465086,-0.465087 1.508947,-1.503779 z"
         style="font-family:'DejaVu Sans Mono';-inkscape-font-specification:'DejaVu Sans Mono'"
         id="path69840"
         sodipodi:nodetypes="ccccccccccc" />
    </g>
  </g>
</svg>
